<?xml version="1.0" encoding="UTF-8"?>
<svg id="Layer_1" data-name="Layer 1" xmlns="http://www.w3.org/2000/svg" viewBox="0 0 283.46 283.46">
  <defs>
    <style>
      .cls-1 {
        fill: #2a7f06;
      }

      .cls-2 {
        fill: #94c039;
      }
    </style>
  </defs>
  <path class="cls-1" d="M0,47.17V236.24H10.83c12.6,0,22.81-10.21,22.81-22.81V104.76L120.44,236.23s-2.18-55.5,35.07-77.99V76.98h44.01s45.34,3.02,47.16,61.79c0,0,35.19-11.97,25.39-45.34-9.79-33.37-49.34-46.25-68.2-46.25h-52.93c-16.85,0-30.5,13.66-30.5,30.5v98.82L45.69,62.13c-6.1-9.33-16.49-14.96-27.64-14.96H0Z"/>
  <path class="cls-2" d="M132.68,234.44s-2.09-34.85,17.26-53.96c19.35-19.11,36.76-21.77,48.61-23.22,11.85-1.45,69.65,.97,84.16-33.86,0,0,7.26,54.66-23.22,84.64-30.47,29.99-64.81,28.31-111.73,28.18,0,0,14.75-19.48,42.68-24.19,27.93-4.72,50.06-25.03,56.95-40.63,0,0-25.76,25.39-62.76,30.11-37,4.72-51.97,32.92-51.97,32.92Z"/>
</svg>