<?xml version="1.0" encoding="UTF-8"?>
<svg id="Layer_1" data-name="Layer 1" xmlns="http://www.w3.org/2000/svg" viewBox="0 0 283.46 283.46">
  <defs>
    <style>
      .cls-1 {
        fill: #2a7f06;
      }

      .cls-2 {
        fill: #94c039;
      }
    </style>
  </defs>
  <path class="cls-1" d="M60.77,87.72v108h6.19c7.2,0,13.03-5.83,13.03-13.03v-62.07l49.58,75.1s-1.24-31.71,20.03-44.55v-46.42h25.14s25.9,1.73,26.94,35.3c0,0,20.1-6.84,14.51-25.9-5.59-19.06-28.18-26.42-38.96-26.42h-30.24c-9.62,0-17.42,7.8-17.42,17.42v56.45l-42.7-65.33c-3.48-5.33-9.42-8.54-15.79-8.54h-10.31Z"/>
  <path class="cls-2" d="M136.56,194.69s-1.19-19.91,9.86-30.82c11.05-10.91,21-12.43,27.77-13.26s39.79,.55,48.08-19.34c0,0,4.14,31.22-13.26,48.35-17.41,17.13-37.02,16.17-63.82,16.1,0,0,8.43-11.13,24.38-13.82,15.96-2.69,28.6-14.3,32.53-23.21,0,0-14.71,14.51-35.85,17.2-21.14,2.69-29.68,18.8-29.68,18.8Z"/>
</svg>